<svg width="24" height="24" viewBox="0 0 24 24" fill="none" xmlns="http://www.w3.org/2000/svg">
<g clip-path="url(#clip0_4813_3187)">
<path fill-rule="evenodd" clip-rule="evenodd" d="M7.3983 4.05445L10.8598 5.81871L11.3208 6.33776C11.223 6.40556 11.1593 6.51628 11.1593 6.64136C11.1593 6.7358 11.1956 6.82205 11.2555 6.88783L9.33132 8.19851L5.73191 8.31055C5.70829 8.19728 5.63156 8.10255 5.52787 8.05158L6.08197 6.34058L3.16739 5.95706L3.14996 6.08044L5.91326 6.44405L5.40469 8.01447C5.38759 8.01225 5.37014 8.0111 5.3524 8.0111C5.1386 8.0111 4.96528 8.17835 4.96528 8.38466C4.96528 8.46534 4.99178 8.54005 5.03685 8.60111L3.77011 9.82346C3.70683 9.77998 3.62941 9.7544 3.5458 9.7544C3.37342 9.7544 3.22736 9.86312 3.17723 10.0134L0.605656 8.82658L0.54998 8.93892L3.15898 10.143C3.16061 10.1827 3.16865 10.2208 3.18213 10.2563L0.279419 11.1085L0.316992 11.2276L3.24832 10.367C3.31933 10.4492 3.42624 10.5015 3.5458 10.5015C3.55465 10.5015 3.56342 10.5012 3.57211 10.5007L5.82848 12.7926L7.56884 13.7372C7.55414 13.7767 7.54613 13.8193 7.54613 13.8636C7.54613 13.8939 7.54986 13.9233 7.55691 13.9515L5.17641 14.9479L5.24878 15.0415L7.60778 14.066C7.67671 14.169 7.79673 14.2372 7.93326 14.2372C8.09913 14.2372 8.24063 14.1365 8.29575 13.9951L12.2118 14.7298C12.2268 14.7729 12.2497 14.8125 12.2789 14.8469L9.82765 16.3641L6.2478 16.7903L6.2636 16.9139L9.8726 16.4842L12.3808 14.9318C12.4387 14.9652 12.5064 14.9843 12.5788 14.9843C12.6309 14.9843 12.6807 14.9744 12.7261 14.9563L16.5924 18.5048C16.4952 18.5723 16.4318 18.6823 16.4313 18.8067L16.3797 18.8144L13.8307 18.9998L10.9168 18.3144L10.8825 18.4345L13.8181 19.1256L16.3945 18.9382L16.4522 18.9295C16.5045 19.0762 16.6487 19.1816 16.8184 19.1816C16.9548 19.1816 17.0747 19.1136 17.1437 19.0107L18.5806 20.3294L18.6695 20.2392L17.1968 18.8876C17.2025 18.862 17.2056 18.8354 17.2056 18.8081C17.2056 18.7193 17.1735 18.6377 17.1198 18.5736L19.6579 16.1612L19.8272 15.6853C19.8555 15.6916 19.8851 15.695 19.9155 15.695C19.9569 15.695 19.9969 15.6887 20.0343 15.6771L22.4488 18.2096L22.5438 18.1253L20.1523 15.617C20.2438 15.5486 20.3026 15.4417 20.3026 15.3215C20.3026 15.1709 20.2103 15.0411 20.0773 14.982L20.5574 13.6323L22.7544 11.5858L22.6636 11.4973L20.4452 13.5644L19.9524 14.9496C19.9403 14.9485 19.9279 14.9479 19.9155 14.9479C19.8025 14.9479 19.7008 14.9946 19.63 15.0691L19.5846 15.0214L18.0577 10.9741L17.7418 10.4053C17.7979 10.3564 17.8391 10.2919 17.858 10.2189L20.0283 10.3838L22.6636 11.5141L22.7166 11.4006L20.0608 10.2614L17.8681 10.0948C17.8507 9.90402 17.6847 9.7544 17.4824 9.7544C17.4495 9.7544 17.4174 9.75838 17.3869 9.76587L16.2116 7.64882C16.2298 7.63071 16.2461 7.61083 16.2603 7.58946L20.684 7.85001L20.6897 7.72562L16.3125 7.46707C16.3181 7.44173 16.321 7.41544 16.321 7.38849C16.321 7.18217 16.1477 7.01492 15.9339 7.01492C15.7345 7.01492 15.5703 7.1604 15.5491 7.34736L11.9334 6.62902C11.9323 6.59755 11.9272 6.56706 11.9186 6.53802L14.58 4.33325L14.4957 4.23901L11.8601 6.42227C11.7897 6.32867 11.6755 6.26779 11.5465 6.26779C11.5099 6.26779 11.4746 6.27267 11.4411 6.2818L10.9427 5.7207L7.56884 4.05444L7.3983 4.05445ZM11.3602 6.96894C11.4155 6.99825 11.479 7.01492 11.5465 7.01492C11.7201 7.01492 11.867 6.90465 11.9161 6.75272L15.5575 7.47616C15.5717 7.53329 15.5996 7.5853 15.6375 7.62884L12.4222 9.69728L8.79811 10.7126C8.73547 10.5877 8.60288 10.5015 8.44943 10.5015C8.35322 10.5015 8.2652 10.5354 8.19749 10.5915L5.687 8.57268C5.71208 8.53121 5.72911 8.48466 5.73605 8.43501L9.37414 8.32177L11.3602 6.96894ZM5.12809 8.68916C5.19138 8.73265 5.26879 8.75823 5.3524 8.75823C5.44862 8.75823 5.53663 8.72436 5.60434 8.6683L8.11484 10.6871C8.10005 10.7115 8.08807 10.7377 8.07929 10.7653L3.91627 10.2367C3.9271 10.2023 3.93293 10.1658 3.93293 10.128C3.93293 10.0473 3.90643 9.97258 3.86136 9.91151L5.12809 8.68916ZM3.71435 10.4644C3.76932 10.4387 3.81704 10.4008 3.85375 10.3544L8.06256 10.8888C8.06844 11.0464 8.17553 11.1791 8.32302 11.2283L7.93237 13.4901C7.81113 13.4903 7.70299 13.5444 7.63219 13.6288L5.90867 12.6932L3.71435 10.4644ZM8.32027 13.8728C8.32035 13.8698 8.32039 13.8667 8.32039 13.8636C8.32039 13.7 8.21141 13.561 8.05968 13.5104L8.45032 11.2487C8.66372 11.2482 8.83656 11.0811 8.83656 10.8751C8.83656 10.8606 8.8357 10.8463 8.83403 10.8322L12.4773 9.81152L15.7406 7.71221C15.7975 7.74391 15.8635 7.76205 15.9339 7.76205C15.9959 7.76205 16.0544 7.74801 16.1064 7.72304L17.2686 9.81652C17.1812 9.87251 17.1187 9.96184 17.1007 10.0657H17.0745L13.8192 12.3274L12.7552 14.2781C12.7023 14.252 12.6423 14.2372 12.5788 14.2372C12.369 14.2372 12.1982 14.3983 12.1919 14.5992L8.32027 13.8728ZM12.8386 14.8877C12.9168 14.8194 12.9659 14.7206 12.9659 14.6107C12.9659 14.5112 12.9256 14.4207 12.8598 14.3538L13.9193 12.4113L17.1024 10.1997C17.1371 10.3717 17.2941 10.5015 17.4824 10.5015C17.5357 10.5015 17.5865 10.4911 17.6327 10.4724L17.9396 11.0251L19.4721 15.0874L19.5581 15.1776C19.5389 15.2219 19.5283 15.2705 19.5283 15.3215C19.5283 15.4541 19.6 15.5706 19.7079 15.6369L19.5457 16.0931L17.023 18.4909C16.9636 18.4551 16.8935 18.4345 16.8184 18.4345C16.7834 18.4345 16.7494 18.439 16.7172 18.4474L12.8386 14.8877Z" fill="#596168"/>
<path d="M0.721581 10.9656V10.9306L0.715317 10.8962C0.536261 9.91244 0.864902 8.89085 1.54216 7.88987C2.21868 6.89 3.21947 5.94778 4.30637 5.14815C5.00153 4.63673 5.82863 4.31722 6.70217 4.13993C8.89443 3.69502 10.1044 3.54588 12.1555 3.76966C14.7864 4.05669 17.356 5.28763 19.2356 6.78829C20.1743 7.53776 20.9287 8.34496 21.4301 9.11994C21.9361 9.90188 22.1602 10.6123 22.1083 11.1823L22.0918 11.3632L22.2203 11.4915C22.4724 11.7434 22.6799 12.141 22.8376 12.64C22.9898 13.1213 23.0863 13.6667 23.1398 14.1992C22.856 16.7393 22.0988 18.2506 20.692 19.0811C19.2411 19.9378 17.004 20.1341 13.5968 19.7623C13.3485 19.7352 13.11 19.744 12.919 19.7509C12.8618 19.753 12.8088 19.755 12.7611 19.7557C12.5396 19.7593 12.3831 19.743 12.229 19.6707C11.9044 19.5183 11.4557 19.0521 10.7615 17.4759L10.5757 17.0541L10.1921 17.3095C9.00188 18.1022 7.89291 17.9714 7.07364 17.4666C6.22482 16.9435 5.70442 16.033 5.70442 15.2918L5.70442 14.9778L5.39725 14.9127C1.39982 14.0657 0.721581 11.819 0.721581 10.9656Z" stroke="#596168" stroke-width="0.775"/>
<path d="M11.3957 11.9688L10.5305 9.60409C10.4879 9.49921 10.4436 9.37467 10.3977 9.23046C10.3518 9.08625 10.306 8.93057 10.2601 8.76341C10.2175 8.93057 10.1732 9.08789 10.1273 9.23537C10.0814 9.37958 10.0372 9.50576 9.99459 9.61392L9.13425 11.9688H11.3957ZM13.7309 14.6531H12.7084C12.5936 14.6531 12.5002 14.6252 12.4281 14.5695C12.356 14.5105 12.3019 14.4384 12.2659 14.3532L11.7349 12.9029H8.79012L8.25916 14.3532C8.23294 14.4285 8.18214 14.4974 8.10676 14.5596C8.03138 14.6219 7.93797 14.6531 7.82654 14.6531H6.79413L9.59146 7.54419H10.9385L13.7309 14.6531Z" fill="#596168"/>
<path d="M15.7941 14.6531H14.4667V7.54419H15.7941V14.6531Z" fill="#596168"/>
</g>
<defs>
<clipPath id="clip0_4813_3187">
<rect width="24" height="24" fill="#596168"/>
</clipPath>
</defs>
</svg>
