<svg width="39" height="41" viewBox="0 0 39 41" fill="none" xmlns="http://www.w3.org/2000/svg">
  <mask id="mask0_419_10587" style="mask-type:alpha" maskUnits="userSpaceOnUse" x="4" y="25" width="29" height="16">
    <path d="M4.94182 32.6056L18.0301 25.8497C18.2428 25.7399 18.5008 25.7412 18.7122 25.8531L31.9583 32.8672C32.2955 33.0457 32.4147 33.4472 32.2246 33.7639C32.1594 33.8723 32.0629 33.9612 31.9462 34.0202L18.5433 40.794C18.329 40.9023 18.0703 40.8985 17.8597 40.784L4.92821 33.7521C4.59316 33.5699 4.47884 33.1672 4.67287 32.8526C4.73689 32.7488 4.82989 32.6634 4.94182 32.6056Z" fill="white"/>
  </mask>
  <g mask="url(#mask0_419_10587)">
    <g opacity="0.8">
      <g opacity="0.8">
        <path opacity="0.8" d="M40.8361 -1.45404H-4.12366V40.8908H40.8361V-1.45404Z" fill="#128EFB"/>
      </g>
    </g>
  </g>
  <mask id="mask1_419_10587" style="mask-type:alpha" maskUnits="userSpaceOnUse" x="24" y="10" width="15" height="9">
    <path d="M24.3031 10.6131V11.1321C24.3031 11.3658 24.4351 11.582 24.6498 11.7001L37.5816 18.8133C37.8902 18.983 38.287 18.8857 38.4678 18.5959C38.526 18.5027 38.5566 18.3966 38.5566 18.2885V17.6129C38.5566 17.3749 38.4197 17.1553 38.1987 17.0388L25.1356 10.1554C24.8664 10.0135 24.5257 10.1034 24.3746 10.3562C24.3277 10.4347 24.3031 10.5231 24.3031 10.6131Z" fill="white"/>
  </mask>
  <g mask="url(#mask1_419_10587)">
    <g opacity="0.8">
      <g opacity="0.8">
        <path opacity="0.8" d="M67.0496 -21.8676H21.8115V20.4559H67.0496V-21.8676Z" fill="#FFC128"/>
      </g>
    </g>
  </g>
  <path fill-rule="evenodd" clip-rule="evenodd" d="M18.5159 0.0441874L36.4104 9.74403C36.5191 9.80294 36.5857 9.91156 36.5857 10.0291L36.5854 10.0346L36.5857 29.432C36.5857 29.5495 36.5191 29.6582 36.4104 29.7171L22.1358 37.4549C22.1235 37.4634 22.1113 37.4713 22.0983 37.4783L18.5219 39.4155C18.5211 39.416 18.5202 39.4164 18.5194 39.4169L18.5054 39.4231L18.4777 39.4363L18.4342 39.45C18.4047 39.4573 18.3744 39.461 18.3441 39.461C18.3138 39.461 18.2836 39.4573 18.2541 39.45L18.2108 39.4363C18.2036 39.4335 18.1964 39.4304 18.1894 39.4271C18.1825 39.424 18.1756 39.4206 18.1688 39.4169L18.1639 39.4139L14.5903 37.4783C14.577 37.471 14.5643 37.4631 14.5524 37.4546L7.43245 33.5977C7.4196 33.5907 7.40733 33.583 7.39568 33.5747L3.85353 31.6557L0.274615 29.7171C0.166301 29.6582 0.098999 29.5495 0.098999 29.432V10.0291C0.098999 9.91156 0.16595 9.80294 0.274264 9.74403L18.1657 0.0441874C18.274 -0.0147291 18.4079 -0.0147291 18.5159 0.0441874ZM0.80006 10.5991V29.2418L4.20371 31.0856L7.78262 33.0243L7.60631 33.3109L7.60841 33.311L7.78262 33.0276L14.9405 36.9049C14.9538 36.9121 14.9664 36.92 14.9787 36.9286L17.9932 38.5617V35.4411L7.43209 29.7171L7.4328 29.716L7.43209 29.7157L7.43174 29.7171L3.85318 27.7751C3.7568 27.7227 3.69317 27.6309 3.68032 27.5286C3.67873 27.5159 3.67791 27.503 3.67791 27.4901V27.4851V12.1576L0.80006 10.5991ZM35.8843 10.5997L33.0064 12.1612L33.0068 27.4901C33.0068 27.6076 32.9402 27.7162 32.8319 27.7751L18.6946 35.4411V38.5617L21.7109 36.9283C21.7225 36.9197 21.7351 36.9118 21.7481 36.9049L35.8846 29.2418L35.8843 10.5997ZM18.3406 20.1093L4.72986 27.4901L15.4656 33.3109L18.3441 34.871L31.9552 27.4904L28.9021 25.8351L28.9017 25.8361L25.3235 23.8949L24.1948 23.2832L21.745 21.9559L21.7453 21.9551L21.7446 21.9548L21.7443 21.9556L19.3049 20.632L18.3406 20.1093ZM17.9901 4.77957L4.37897 12.1576V26.92L17.9901 19.5386V4.77957ZM18.6911 4.77924V19.5386L21.582 21.106L32.3054 26.9199V12.1608L25.3235 8.37545C25.3102 8.36821 25.2972 8.36031 25.2853 8.35142L25.2692 8.34245L21.7443 6.43351L21.745 6.43211V6.43178L21.7439 6.43351L18.6911 4.77924ZM18.3406 0.709056L1.15059 10.0287L4.02844 11.5876L18.1639 3.92558C18.1644 3.92531 18.1648 3.92505 18.1653 3.92478L18.186 3.91515L18.2067 3.90554C18.2775 3.8777 18.3559 3.87305 18.4295 3.89118C18.4299 3.8915 18.4304 3.89162 18.4308 3.89173L18.4433 3.89486C18.4527 3.89756 18.462 3.90064 18.4712 3.9041C18.4777 3.90666 18.4842 3.90932 18.4906 3.91217C18.4977 3.91517 18.5047 3.91854 18.5117 3.92215L18.7567 4.05084L25.673 7.80143C25.6834 7.80721 25.6939 7.81337 25.7037 7.82007L25.673 7.80143C25.6861 7.80845 25.6985 7.81619 25.7103 7.82459C25.711 7.82527 25.7118 7.82585 25.7126 7.82644L26.1185 8.04656L29.2401 9.7367C29.2449 9.73903 29.2496 9.74147 29.2544 9.74403L32.658 11.5898L35.5338 10.0293L18.3406 0.709056Z" fill="#192A42"/>
  <mask id="mask2_419_10587" style="mask-type:alpha" maskUnits="userSpaceOnUse" x="4" y="4" width="29" height="31">
    <path d="M16.2359 5.86341L18.3426 4.58798L31.9553 12.2985L32.2426 27.205L18.3442 34.8714L4.37903 27.205L4.72991 12.3001L16.2359 5.86341Z" fill="white"/>
  </mask>
  <g mask="url(#mask2_419_10587)">
    <path fill-rule="evenodd" clip-rule="evenodd" d="M18.5159 0.0441874L36.4104 9.74403C36.5191 9.80294 36.5857 9.91156 36.5857 10.0291L36.5854 10.0346L36.5857 29.432C36.5857 29.5495 36.5191 29.6582 36.4104 29.7171L22.1358 37.4549C22.1235 37.4634 22.1113 37.4713 22.0983 37.4783L18.5219 39.4155C18.5211 39.416 18.5202 39.4164 18.5194 39.4169L18.5053 39.4231L18.4777 39.4363L18.4342 39.45C18.4047 39.4573 18.3744 39.461 18.3441 39.461C18.3138 39.461 18.2836 39.4573 18.2541 39.45L18.2108 39.4363C18.2036 39.4335 18.1964 39.4304 18.1894 39.4271C18.1825 39.424 18.1756 39.4206 18.1688 39.4169L18.1639 39.4139L14.5903 37.4783C14.577 37.471 14.5643 37.4631 14.5524 37.4546L7.43244 33.5977C7.4196 33.5907 7.40733 33.583 7.39568 33.5747L3.85353 31.6557L0.274615 29.7171C0.166301 29.6582 0.098999 29.5495 0.098999 29.432V10.0291C0.098999 9.91156 0.16595 9.80294 0.274264 9.74403L18.1657 0.0441874C18.274 -0.0147291 18.4079 -0.0147291 18.5159 0.0441874ZM0.80006 10.5991V29.2418L4.20371 31.0856L7.78262 33.0243L7.60631 33.3109L7.60841 33.311L7.78262 33.0276L14.9405 36.9049C14.9538 36.9121 14.9664 36.92 14.9787 36.9286L17.9932 38.5617V35.4411L7.43209 29.7171L7.4328 29.716L7.43209 29.7157L7.43174 29.7171L3.85318 27.7751C3.7568 27.7227 3.69317 27.6309 3.68032 27.5286C3.67873 27.5159 3.67791 27.503 3.67791 27.4901V27.4851V12.1576L0.80006 10.5991ZM35.8843 10.5997L33.0064 12.1612L33.0068 27.4901C33.0068 27.6076 32.9402 27.7162 32.8319 27.7751L18.6946 35.4411V38.5617L21.7109 36.9283C21.7225 36.9197 21.7351 36.9118 21.7481 36.9049L35.8846 29.2418L35.8843 10.5997ZM18.3406 20.1093L4.72986 27.4901L15.4655 33.3109L18.3441 34.871L31.9552 27.4904L28.9021 25.8351L28.9017 25.8361L25.3235 23.8949L24.1948 23.2832L21.7449 21.9559L21.7453 21.9551L21.7446 21.9548L21.7442 21.9556L19.3049 20.632L18.3406 20.1093ZM17.9901 4.77957L4.37897 12.1576V26.92L17.9901 19.5386V4.77957ZM18.6911 4.77924V19.5386L21.582 21.106L32.3054 26.9199V12.1608L25.3235 8.37545C25.3102 8.36821 25.2972 8.36031 25.2853 8.35142L25.2692 8.34245L21.7442 6.43351L21.7449 6.43211V6.43178L21.7439 6.43351L18.6911 4.77924ZM18.3406 0.709056L1.15059 10.0287L4.02844 11.5876L18.1639 3.92558C18.1644 3.92531 18.1648 3.92505 18.1653 3.92478L18.186 3.91515L18.2067 3.90554C18.2775 3.8777 18.3559 3.87305 18.4295 3.89118C18.4299 3.8915 18.4304 3.89162 18.4308 3.89173L18.4433 3.89486C18.4527 3.89756 18.462 3.90064 18.4712 3.9041C18.4777 3.90666 18.4842 3.90932 18.4906 3.91217C18.4977 3.91517 18.5047 3.91854 18.5117 3.92215L18.7567 4.05084L25.673 7.80143C25.6834 7.80721 25.6939 7.81337 25.7037 7.82007L25.673 7.80143C25.6861 7.80845 25.6985 7.81619 25.7103 7.82459C25.711 7.82527 25.7118 7.82585 25.7126 7.82644L26.1185 8.04656L29.2401 9.7367C29.2449 9.73903 29.2496 9.74147 29.2544 9.74403L32.658 11.5898L35.5338 10.0293L18.3406 0.709056Z" fill="#DDE6EE"/>
  </g>
</svg>
